<svg width="151" height="250" viewBox="0 0 151 250" fill="none" xmlns="http://www.w3.org/2000/svg">
<path d="M28.1641 53H0.601562V45.8633L9.74219 32.9258C12.25 29.3633 13.9727 26.7266 14.9102 25.0156C15.8477 23.2812 16.5391 21.6289 16.9844 20.0586C17.4297 18.4648 17.6523 16.8242 17.6523 15.1367C17.6523 13.168 17.207 11.6914 16.3164 10.707C15.4492 9.72266 14.3125 9.23047 12.9062 9.23047C11.6641 9.23047 10.5039 9.55859 9.42578 10.2148C8.34766 10.8711 7.03516 12.0547 5.48828 13.7656L0.144531 8.14062C2.60547 5.35156 4.89062 3.44141 7 2.41016C9.10938 1.37891 11.3945 0.863281 13.8555 0.863281C18.0039 0.863281 21.2383 2.08203 23.5586 4.51953C25.9023 6.95703 27.0742 10.3438 27.0742 14.6797C27.0742 16.6484 26.8633 18.5117 26.4414 20.2695C26.0195 22.0273 25.375 23.7969 24.5078 25.5781C23.6641 27.3359 22.5977 29.1758 21.3086 31.0977C20.0195 32.9961 16.6914 37.3672 11.3242 44.2109V44.4922H28.1641V53ZM69.2547 27.3008C69.2547 36.6055 68.1297 43.332 65.8797 47.4805C63.6531 51.6289 60.0555 53.7031 55.0867 53.7031C50.118 53.7031 46.5438 51.6172 44.3641 47.4453C42.2078 43.2734 41.1297 36.5586 41.1297 27.3008C41.1297 18.0195 42.2664 11.2812 44.5398 7.08594C46.8133 2.89063 50.3758 0.792969 55.2273 0.792969C60.1727 0.792969 63.7469 2.84375 65.95 6.94531C68.1531 11.0469 69.2547 17.832 69.2547 27.3008ZM50.6922 27.3008C50.6922 34.4961 50.9969 39.3477 51.6063 41.8555C52.2391 44.3398 53.4227 45.582 55.157 45.582C56.3289 45.582 57.2313 45.043 57.8641 43.9648C58.5203 42.8867 58.9891 41.1055 59.2703 38.6211C59.5516 36.1133 59.6922 32.3398 59.6922 27.3008C59.6922 20.2227 59.3641 15.3945 58.7078 12.8164C58.0516 10.2383 56.868 8.94922 55.157 8.94922C53.4227 8.94922 52.2391 10.2383 51.6063 12.8164C50.9969 15.3711 50.6922 20.1992 50.6922 27.3008ZM104.685 53H95.2633V22.8359C95.2633 19.5547 95.4273 15.7812 95.7555 11.5156C95.5914 11.75 94.982 12.4648 93.9273 13.6602C92.8961 14.8555 90.8688 17 87.8453 20.0938L82.5016 14.2578L96.1773 1.60156H104.685V53ZM136.284 0.933594C140.291 0.933594 143.491 2.07031 145.881 4.34375C148.272 6.61719 149.467 9.71094 149.467 13.625C149.467 16.0391 148.905 18.2305 147.78 20.1992C146.678 22.1445 144.791 24.0078 142.12 25.7891C145.12 27.9219 147.252 30.1133 148.518 32.3633C149.784 34.5898 150.416 37.0273 150.416 39.6758C150.416 43.8711 149.127 47.2578 146.549 49.8359C143.971 52.4141 140.549 53.7031 136.284 53.7031C131.854 53.7031 128.385 52.5195 125.877 50.1523C123.37 47.7617 122.116 44.3633 122.116 39.957C122.116 37.0039 122.737 34.4023 123.979 32.1523C125.245 29.8789 127.19 27.8984 129.815 26.2109C127.377 24.2656 125.631 22.3086 124.577 20.3398C123.545 18.3477 123.03 16.1094 123.03 13.625C123.03 9.78125 124.26 6.71094 126.721 4.41406C129.205 2.09375 132.393 0.933594 136.284 0.933594ZM131.186 39.4648C131.186 41.5273 131.608 43.168 132.452 44.3867C133.319 45.6055 134.549 46.2148 136.143 46.2148C137.877 46.2148 139.166 45.6055 140.01 44.3867C140.877 43.168 141.311 41.5273 141.311 39.4648C141.311 37.9883 140.971 36.5938 140.291 35.2812C139.612 33.9688 138.299 32.457 136.354 30.7461L135.862 30.2539C134.338 31.3789 133.178 32.668 132.381 34.1211C131.584 35.5508 131.186 37.332 131.186 39.4648ZM136.213 8.35156C134.877 8.35156 133.87 8.84375 133.19 9.82812C132.51 10.7891 132.17 12.1719 132.17 13.9766C132.17 15.5234 132.452 16.8711 133.014 18.0195C133.577 19.168 134.666 20.3867 136.284 21.6758C137.83 20.4805 138.885 19.2852 139.448 18.0898C140.034 16.8945 140.327 15.5234 140.327 13.9766C140.327 10.2266 138.955 8.35156 136.213 8.35156ZM28.1641 151H0.601562V143.863L9.74219 130.926C12.25 127.363 13.9727 124.727 14.9102 123.016C15.8477 121.281 16.5391 119.629 16.9844 118.059C17.4297 116.465 17.6523 114.824 17.6523 113.137C17.6523 111.168 17.207 109.691 16.3164 108.707C15.4492 107.723 14.3125 107.23 12.9062 107.23C11.6641 107.23 10.5039 107.559 9.42578 108.215C8.34766 108.871 7.03516 110.055 5.48828 111.766L0.144531 106.141C2.60547 103.352 4.89062 101.441 7 100.41C9.10938 99.3789 11.3945 98.8633 13.8555 98.8633C18.0039 98.8633 21.2383 100.082 23.5586 102.52C25.9023 104.957 27.0742 108.344 27.0742 112.68C27.0742 114.648 26.8633 116.512 26.4414 118.27C26.0195 120.027 25.375 121.797 24.5078 123.578C23.6641 125.336 22.5977 127.176 21.3086 129.098C20.0195 130.996 16.6914 135.367 11.3242 142.211V142.492H28.1641V151ZM69.2547 125.301C69.2547 134.605 68.1297 141.332 65.8797 145.48C63.6531 149.629 60.0555 151.703 55.0867 151.703C50.118 151.703 46.5438 149.617 44.3641 145.445C42.2078 141.273 41.1297 134.559 41.1297 125.301C41.1297 116.02 42.2664 109.281 44.5398 105.086C46.8133 100.891 50.3758 98.793 55.2273 98.793C60.1727 98.793 63.7469 100.844 65.95 104.945C68.1531 109.047 69.2547 115.832 69.2547 125.301ZM50.6922 125.301C50.6922 132.496 50.9969 137.348 51.6063 139.855C52.2391 142.34 53.4227 143.582 55.157 143.582C56.3289 143.582 57.2313 143.043 57.8641 141.965C58.5203 140.887 58.9891 139.105 59.2703 136.621C59.5516 134.113 59.6922 130.34 59.6922 125.301C59.6922 118.223 59.3641 113.395 58.7078 110.816C58.0516 108.238 56.868 106.949 55.157 106.949C53.4227 106.949 52.2391 108.238 51.6063 110.816C50.9969 113.371 50.6922 118.199 50.6922 125.301ZM104.685 151H95.2633V120.836C95.2633 117.555 95.4273 113.781 95.7555 109.516C95.5914 109.75 94.982 110.465 93.9273 111.66C92.8961 112.855 90.8688 115 87.8453 118.094L82.5016 112.258L96.1773 99.6016H104.685V151ZM150.1 121.996C150.1 141.801 143.479 151.703 130.237 151.703C128.034 151.703 126.205 151.516 124.752 151.141V143.09C126.346 143.605 127.834 143.863 129.217 143.863C133.131 143.863 136.096 142.504 138.112 139.785C140.151 137.066 141.276 132.789 141.487 126.953H141.17C140.42 128.805 139.342 130.258 137.936 131.312C136.553 132.344 134.901 132.859 132.979 132.859C129.487 132.859 126.78 131.43 124.858 128.57C122.936 125.711 121.975 121.785 121.975 116.793C121.975 111.309 123.229 106.961 125.737 103.75C128.268 100.539 131.643 98.9336 135.862 98.9336C140.455 98.9336 143.971 100.914 146.409 104.875C148.87 108.836 150.1 114.543 150.1 121.996ZM135.932 107.09C134.526 107.09 133.401 107.852 132.557 109.375C131.737 110.898 131.327 113.301 131.327 116.582C131.327 119.277 131.69 121.387 132.416 122.91C133.143 124.41 134.245 125.16 135.721 125.16C137.057 125.16 138.217 124.398 139.202 122.875C140.186 121.328 140.678 119.57 140.678 117.602C140.678 114.555 140.245 112.047 139.377 110.078C138.51 108.086 137.362 107.09 135.932 107.09ZM28.1641 249H0.601562V241.863L9.74219 228.926C12.25 225.363 13.9727 222.727 14.9102 221.016C15.8477 219.281 16.5391 217.629 16.9844 216.059C17.4297 214.465 17.6523 212.824 17.6523 211.137C17.6523 209.168 17.207 207.691 16.3164 206.707C15.4492 205.723 14.3125 205.23 12.9062 205.23C11.6641 205.23 10.5039 205.559 9.42578 206.215C8.34766 206.871 7.03516 208.055 5.48828 209.766L0.144531 204.141C2.60547 201.352 4.89062 199.441 7 198.41C9.10938 197.379 11.3945 196.863 13.8555 196.863C18.0039 196.863 21.2383 198.082 23.5586 200.52C25.9023 202.957 27.0742 206.344 27.0742 210.68C27.0742 212.648 26.8633 214.512 26.4414 216.27C26.0195 218.027 25.375 219.797 24.5078 221.578C23.6641 223.336 22.5977 225.176 21.3086 227.098C20.0195 228.996 16.6914 233.367 11.3242 240.211V240.492H28.1641V249ZM69.2547 223.301C69.2547 232.605 68.1297 239.332 65.8797 243.48C63.6531 247.629 60.0555 249.703 55.0867 249.703C50.118 249.703 46.5438 247.617 44.3641 243.445C42.2078 239.273 41.1297 232.559 41.1297 223.301C41.1297 214.02 42.2664 207.281 44.5398 203.086C46.8133 198.891 50.3758 196.793 55.2273 196.793C60.1727 196.793 63.7469 198.844 65.95 202.945C68.1531 207.047 69.2547 213.832 69.2547 223.301ZM50.6922 223.301C50.6922 230.496 50.9969 235.348 51.6063 237.855C52.2391 240.34 53.4227 241.582 55.157 241.582C56.3289 241.582 57.2313 241.043 57.8641 239.965C58.5203 238.887 58.9891 237.105 59.2703 234.621C59.5516 232.113 59.6922 228.34 59.6922 223.301C59.6922 216.223 59.3641 211.395 58.7078 208.816C58.0516 206.238 56.868 204.949 55.157 204.949C53.4227 204.949 52.2391 206.238 51.6063 208.816C50.9969 211.371 50.6922 216.199 50.6922 223.301ZM109.22 249H81.6578V241.863L90.7984 228.926C93.3063 225.363 95.0289 222.727 95.9664 221.016C96.9039 219.281 97.5953 217.629 98.0406 216.059C98.4859 214.465 98.7086 212.824 98.7086 211.137C98.7086 209.168 98.2633 207.691 97.3727 206.707C96.5055 205.723 95.3688 205.23 93.9625 205.23C92.7203 205.23 91.5602 205.559 90.482 206.215C89.4039 206.871 88.0914 208.055 86.5445 209.766L81.2008 204.141C83.6617 201.352 85.9469 199.441 88.0563 198.41C90.1656 197.379 92.4508 196.863 94.9117 196.863C99.0602 196.863 102.295 198.082 104.615 200.52C106.959 202.957 108.13 206.344 108.13 210.68C108.13 212.648 107.92 214.512 107.498 216.27C107.076 218.027 106.431 219.797 105.564 221.578C104.72 223.336 103.654 225.176 102.365 227.098C101.076 228.996 97.7477 233.367 92.3805 240.211V240.492H109.22V249ZM150.311 223.301C150.311 232.605 149.186 239.332 146.936 243.48C144.709 247.629 141.112 249.703 136.143 249.703C131.174 249.703 127.6 247.617 125.42 243.445C123.264 239.273 122.186 232.559 122.186 223.301C122.186 214.02 123.323 207.281 125.596 203.086C127.87 198.891 131.432 196.793 136.284 196.793C141.229 196.793 144.803 198.844 147.006 202.945C149.209 207.047 150.311 213.832 150.311 223.301ZM131.748 223.301C131.748 230.496 132.053 235.348 132.662 237.855C133.295 240.34 134.479 241.582 136.213 241.582C137.385 241.582 138.287 241.043 138.92 239.965C139.577 238.887 140.045 237.105 140.327 234.621C140.608 232.113 140.748 228.34 140.748 223.301C140.748 216.223 140.42 211.395 139.764 208.816C139.108 206.238 137.924 204.949 136.213 204.949C134.479 204.949 133.295 206.238 132.662 208.816C132.053 211.371 131.748 216.199 131.748 223.301Z" fill="#D1A954"/>
</svg>
